{
  "accessors": [
    {
      "bufferView": 2,
      "componentType": 5126,
      "count": 1175,
      "max": [
        1.062041997909546,
        2.850919246673584,
        1.8399403095245361
      ],
      "min": [
        -1.062041997909546,
        -2.8527932167053223,
        0.006784853059798479
      ],
      "type": "VEC3"
    },
    {
      "bufferView": 2,
      "byteOffset": 14100,
      "componentType": 5126,
      "count": 1175,
      "max": [
        1.0,
        0.9944118857383728,
        0.9999865293502808
      ],
      "min": [
        -1.0,
        -0.9966464042663574,
        -0.9994342923164368
      ],
      "type": "VEC3"
    },
    {
      "bufferView": 3,
      "componentType": 5126,
      "count": 1175,
      "max": [
        1.0,
        1.0,
        0.9944118857383728,
        1.0
      ],
      "min": [
        -1.0,
        -0.15442854166030884,
        -0.8447598814964294,
        -1.0
      ],
      "type": "VEC4"
    },
    {
      "bufferView": 1,
      "componentType": 5126,
      "count": 1175,
      "max": [
        0.979918360710144,
        0.9819784164428711
      ],
      "min": [
        0.011883812956511974,
        0.011442184448242188
      ],
      "type": "VEC2"
    },
    {
      "bufferView": 1,
      "byteOffset": 9400,
      "componentType": 5126,
      "count": 1175,
      "max": [
        0.979918360710144,
        0.9819784164428711
      ],
      "min": [
        0.011883812956511974,
        0.011442184448242188
      ],
      "type": "VEC2"
    },
    {
      "bufferView": 0,
      "componentType": 5125,
      "count": 1854,
      "type": "SCALAR"
    },
    {
      "bufferView": 2,
      "byteOffset": 28200,
      "componentType": 5126,
      "count": 11,
      "max": [
        0.8720161318778992,
        0.7677223682403564,
        1.7730703353881836
      ],
      "min": [
        0.7360183000564575,
        -1.166488766670227,
        1.3136298656463623
      ],
      "type": "VEC3"
    },
    {
      "bufferView": 2,
      "byteOffset": 28332,
      "componentType": 5126,
      "count": 11,
      "max": [
        0.9535506963729858,
        -0.009953886270523071,
        0.30567261576652527
      ],
      "min": [
        0.9520846605300903,
        -0.013619013130664825,
        0.30096688866615295
      ],
      "type": "VEC3"
    },
    {
      "bufferView": 1,
      "byteOffset": 18800,
      "componentType": 5126,
      "count": 11,
      "max": [
        1.0037832260131836,
        0.9975429773330688
      ],
      "min": [
        0.004282310605049133,
        0.9347977042198181
      ],
      "type": "VEC2"
    },
    {
      "bufferView": 1,
      "byteOffset": 18888,
      "componentType": 5126,
      "count": 11,
      "max": [
        1.0037832260131836,
        0.9975429773330688
      ],
      "min": [
        0.004282310605049133,
        0.9347977042198181
      ],
      "type": "VEC2"
    },
    {
      "bufferView": 0,
      "byteOffset": 7416,
      "componentType": 5125,
      "count": 15,
      "type": "SCALAR"
    },
    {
      "bufferView": 2,
      "byteOffset": 28464,
      "componentType": 5126,
      "count": 7644,
      "max": [
        1.066735029220581,
        2.2150719165802,
        0.9050523638725281
      ],
      "min": [
        -1.066735029220581,
        -2.4358086585998535,
        -0.004426128696650267
      ],
      "type": "VEC3"
    },
    {
      "bufferView": 2,
      "byteOffset": 120192,
      "componentType": 5126,
      "count": 7644,
      "max": [
        1.0,
        0.9999964833259583,
        0.9999964237213135
      ],
      "min": [
        -1.0,
        -0.9999964833259583,
        -0.9999964833259583
      ],
      "type": "VEC3"
    },
    {
      "bufferView": 1,
      "byteOffset": 18976,
      "componentType": 5126,
      "count": 7644,
      "max": [
        10.162757873535156,
        0.88377445936203
      ],
      "min": [
        -10.131513595581055,
        -0.0014362799702212214
      ],
      "type": "VEC2"
    },
    {
      "bufferView": 1,
      "byteOffset": 80128,
      "componentType": 5126,
      "count": 7644,
      "max": [
        10.162757873535156,
        0.88377445936203
      ],
      "min": [
        -10.131513595581055,
        -0.0014362799702212214
      ],
      "type": "VEC2"
    },
    {
      "bufferView": 0,
      "byteOffset": 7476,
      "componentType": 5125,
      "count": 15876,
      "type": "SCALAR"
    },
    {
      "bufferView": 2,
      "byteOffset": 211920,
      "componentType": 5126,
      "count": 510,
      "max": [
        0.6557753682136536,
        0.7203754186630249,
        1.717677354812622
      ],
      "min": [
        -0.28739872574806213,
        -1.1646767854690552,
        0.7186722755432129
      ],
      "type": "VEC3"
    },
    {
      "bufferView": 2,
      "byteOffset": 218040,
      "componentType": 5126,
      "count": 510,
      "max": [
        1.0,
        0.9984482526779175,
        1.0
      ],
      "min": [
        -1.0,
        -0.9995036721229553,
        -1.0
      ],
      "type": "VEC3"
    },
    {
      "bufferView": 1,
      "byteOffset": 141280,
      "componentType": 5126,
      "count": 510,
      "max": [
        0.8146920800209045,
        0.9823141098022461
      ],
      "min": [
        0.6052317023277283,
        0.5476927757263184
      ],
      "type": "VEC2"
    },
    {
      "bufferView": 0,
      "byteOffset": 70980,
      "componentType": 5125,
      "count": 1272,
      "type": "SCALAR"
    },
    {
      "bufferView": 2,
      "byteOffset": 224160,
      "componentType": 5126,
      "count": 2172,
      "max": [
        1.0585089921951294,
        2.850919246673584,
        1.834335207939148
      ],
      "min": [
        -1.0585089921951294,
        -2.8527932167053223,
        0.3319977819919586
      ],
      "type": "VEC3"
    },
    {
      "bufferView": 2,
      "byteOffset": 250224,
      "componentType": 5126,
      "count": 2172,
      "max": [
        1.0,
        1.0,
        1.0
      ],
      "min": [
        -1.0,
        -1.0,
        -1.0
      ],
      "type": "VEC3"
    },
    {
      "bufferView": 1,
      "byteOffset": 145360,
      "componentType": 5126,
      "count": 2172,
      "max": [
        0.992425262928009,
        0.9565032124519348
      ],
      "min": [
        0.01656438410282135,
        0.021342948079109192
      ],
      "type": "VEC2"
    },
    {
      "bufferView": 0,
      "byteOffset": 76068,
      "componentType": 5125,
      "count": 4392,
      "type": "SCALAR"
    },
    {
      "bufferView": 2,
      "byteOffset": 276288,
      "componentType": 5126,
      "count": 86,
      "max": [
        0.9541900753974915,
        2.8126003742218018,
        1.8343462944030762
      ],
      "min": [
        -0.9541900753974915,
        -2.8234972953796387,
        0.5265796780586243
      ],
      "type": "VEC3"
    },
    {
      "bufferView": 2,
      "byteOffset": 277320,
      "componentType": 5126,
      "count": 86,
      "max": [
        1.0,
        0.9999424815177917,
        0.9933700561523438
      ],
      "min": [
        -1.0,
        -1.0,
        -0.998865008354187
      ],
      "type": "VEC3"
    },
    {
      "bufferView": 1,
      "byteOffset": 162736,
      "componentType": 5126,
      "count": 86,
      "max": [
        0.9805111885070801,
        0.518756628036499
      ],
      "min": [
        0.015020161867141724,
        0.016718953847885132
      ],
      "type": "VEC2"
    },
    {
      "bufferView": 0,
      "byteOffset": 93636,
      "componentType": 5125,
      "count": 144,
      "type": "SCALAR"
    },
    {
      "bufferView": 2,
      "byteOffset": 278352,
      "componentType": 5126,
      "count": 81,
      "max": [
        0.9660871028900146,
        2.850919246673584,
        1.8280061483383179
      ],
      "min": [
        -0.9660871028900146,
        -2.8527932167053223,
        0.9923923015594482
      ],
      "type": "VEC3"
    },
    {
      "bufferView": 2,
      "byteOffset": 279324,
      "componentType": 5126,
      "count": 81,
      "max": [
        0.9545598030090332,
        0.9872152805328369,
        0.9945477843284607
      ],
      "min": [
        -0.9545596241950989,
        -0.9771714210510254,
        -0.22040878236293793
      ],
      "type": "VEC3"
    },
    {
      "bufferView": 1,
      "byteOffset": 163424,
      "componentType": 5126,
      "count": 81,
      "max": [
        0.972909688949585,
        0.9695245027542114
      ],
      "min": [
        0.019158821552991867,
        0.7819714546203613
      ],
      "type": "VEC2"
    },
    {
      "bufferView": 0,
      "byteOffset": 94212,
      "componentType": 5125,
      "count": 174,
      "type": "SCALAR"
    },
    {
      "bufferView": 2,
      "byteOffset": 280296,
      "componentType": 5126,
      "count": 78,
      "max": [
        0.9186181426048279,
        0.8399462699890137,
        1.8399403095245361
      ],
      "min": [
        -0.9186181426048279,
        -2.1443939208984375,
        1.2518349885940552
      ],
      "type": "VEC3"
    },
    {
      "bufferView": 2,
      "byteOffset": 281232,
      "componentType": 5126,
      "count": 78,
      "max": [
        0.9624544382095337,
        0.13625186681747437,
        0.9947565793991089
      ],
      "min": [
        -0.9624542593955994,
        -0.33515170216560364,
        0.2710869014263153
      ],
      "type": "VEC3"
    },
    {
      "bufferView": 1,
      "byteOffset": 164072,
      "componentType": 5126,
      "count": 78,
      "max": [
        0.5565181374549866,
        0.9825125932693481
      ],
      "min": [
        0.29569095373153687,
        0.7976306676864624
      ],
      "type": "VEC2"
    },
    {
      "bufferView": 0,
      "byteOffset": 94908,
      "componentType": 5125,
      "count": 192,
      "type": "SCALAR"
    },
    {
      "bufferView": 2,
      "byteOffset": 282168,
      "componentType": 5126,
      "count": 480,
      "max": [
        0.9721311330795288,
        2.8509182929992676,
        1.8399403095245361
      ],
      "min": [
        -0.9721311330795288,
        -2.872267246246338,
        0.4286006689071655
      ],
      "type": "VEC3"
    },
    {
      "bufferView": 2,
      "byteOffset": 287928,
      "componentType": 5126,
      "count": 480,
      "max": [
        0.9992623925209045,
        0.9983245730400085,
        0.998664915561676
      ],
      "min": [
        -0.9992623925209045,
        -1.0,
        -0.9999970197677612
      ],
      "type": "VEC3"
    },
    {
      "bufferView": 1,
      "byteOffset": 164696,
      "componentType": 5126,
      "count": 480,
      "max": [
        0.9790366888046265,
        0.5241091251373291
      ],
      "min": [
        0.01152246817946434,
        0.18104401230812073
      ],
      "type": "VEC2"
    },
    {
      "bufferView": 1,
      "byteOffset": 168536,
      "componentType": 5126,
      "count": 480,
      "max": [
        0.9790366888046265,
        0.5241091251373291
      ],
      "min": [
        0.01152246817946434,
        0.18104401230812073
      ],
      "type": "VEC2"
    },
    {
      "bufferView": 0,
      "byteOffset": 95676,
      "componentType": 5125,
      "count": 942,
      "type": "SCALAR"
    }
  ],
  "asset": {
    "extras": {
      "author": "hashikemu (https://sketchfab.com/hashikemu)",
      "license": "CC-BY-4.0 (http://creativecommons.org/licenses/by/4.0/)",
      "source": "https://sketchfab.com/3d-models/tesla-cybertruck-657e71b3e2ad468196668e9c9df708fb",
      "title": "Tesla Cybertruck"
    },
    "generator": "Sketchfab-12.66.0",
    "version": "2.0"
  },
  "bufferViews": [
    {
      "buffer": 0,
      "byteLength": 99444,
      "name": "floatBufferViews",
      "target": 34963
    },
    {
      "buffer": 0,
      "byteLength": 172376,
      "byteOffset": 99444,
      "byteStride": 8,
      "name": "floatBufferViews",
      "target": 34962
    },
    {
      "buffer": 0,
      "byteLength": 293688,
      "byteOffset": 271820,
      "byteStride": 12,
      "name": "floatBufferViews",
      "target": 34962
    },
    {
      "buffer": 0,
      "byteLength": 18800,
      "byteOffset": 565508,
      "byteStride": 16,
      "name": "floatBufferViews",
      "target": 34962
    }
  ],
  "buffers": [
    {
      "byteLength": 584308,
      "uri": "scene.bin"
    }
  ],
  "images": [
    {
      "uri": "textures/body_LOD1_baseColor.png"
    },
    {
      "uri": "textures/body_LOD1_normal.png"
    },
    {
      "uri": "textures/glass_crack_baseColor.png"
    },
    {
      "uri": "textures/rubber_baseColor.png"
    },
    {
      "uri": "textures/rubber_metallicRoughness.png"
    },
    {
      "uri": "textures/gray_baseColor.png"
    },
    {
      "uri": "textures/gray_metallicRoughness.png"
    },
    {
      "uri": "textures/glass_baseColor.png"
    },
    {
      "uri": "textures/body_metallicRoughness.png"
    }
  ],
  "materials": [
    {
      "doubleSided": true,
      "name": "body_LOD1",
      "normalTexture": {
        "index": 1
      },
      "pbrMetallicRoughness": {
        "baseColorTexture": {
          "index": 0
        },
        "metallicFactor": 0.0,
        "roughnessFactor": 0.5168560606060606
      }
    },
    {
      "alphaMode": "BLEND",
      "doubleSided": true,
      "name": "glass_crack",
      "pbrMetallicRoughness": {
        "baseColorTexture": {
          "index": 2
        },
        "metallicFactor": 0.0,
        "roughnessFactor": 0.8855621217
      }
    },
    {
      "doubleSided": true,
      "name": "rubber",
      "pbrMetallicRoughness": {
        "baseColorTexture": {
          "index": 3
        },
        "metallicFactor": 0.0,
        "metallicRoughnessTexture": {
          "index": 4
        }
      }
    },
    {
      "doubleSided": true,
      "name": "gray",
      "pbrMetallicRoughness": {
        "baseColorTexture": {
          "index": 5
        },
        "metallicRoughnessTexture": {
          "index": 6
        },
        "roughnessFactor": 0.8380681818
      }
    },
    {
      "doubleSided": true,
      "emissiveFactor": [
        1.0,
        1.0,
        1.0
      ],
      "emissiveTexture": {
        "index": 5
      },
      "name": "light_f",
      "pbrMetallicRoughness": {
        "baseColorTexture": {
          "index": 5
        },
        "metallicFactor": 0.0,
        "roughnessFactor": 0.2623106061
      }
    },
    {
      "alphaMode": "BLEND",
      "doubleSided": true,
      "name": "glass",
      "pbrMetallicRoughness": {
        "baseColorTexture": {
          "index": 7
        },
        "metallicFactor": 0.959280303,
        "roughnessFactor": 0.117
      }
    },
    {
      "alphaMode": "BLEND",
      "doubleSided": true,
      "name": "glassgray",
      "pbrMetallicRoughness": {
        "baseColorTexture": {
          "index": 7
        },
        "metallicFactor": 0.959280303,
        "roughnessFactor": 0.117
      }
    },
    {
      "doubleSided": true,
      "name": "body",
      "pbrMetallicRoughness": {
        "baseColorTexture": {
          "index": 5
        },
        "metallicFactor": 0.3835227273,
        "metallicRoughnessTexture": {
          "index": 8
        },
        "roughnessFactor": 0.3168560606
      }
    }
  ],
  "meshes": [
    {
      "name": "body_LOD1_body_LOD1_0",
      "primitives": [
        {
          "attributes": {
            "NORMAL": 1,
            "POSITION": 0,
            "TANGENT": 2,
            "TEXCOORD_0": 3,
            "TEXCOORD_1": 4
          },
          "indices": 5,
          "material": 0,
          "mode": 4
        }
      ]
    },
    {
      "name": "0",
      "primitives": [
        {
          "attributes": {
            "NORMAL": 7,
            "POSITION": 6,
            "TEXCOORD_0": 8,
            "TEXCOORD_1": 9
          },
          "indices": 10,
          "material": 1,
          "mode": 4
        }
      ]
    },
    {
      "name": "tires_rubber_0",
      "primitives": [
        {
          "attributes": {
            "NORMAL": 12,
            "POSITION": 11,
            "TEXCOORD_0": 13,
            "TEXCOORD_1": 14
          },
          "indices": 15,
          "material": 2,
          "mode": 4
        }
      ]
    },
    {
      "name": "steer_gray_0",
      "primitives": [
        {
          "attributes": {
            "NORMAL": 17,
            "POSITION": 16,
            "TEXCOORD_0": 18
          },
          "indices": 19,
          "material": 3,
          "mode": 4
        }
      ]
    },
    {
      "name": "body_gray_0",
      "primitives": [
        {
          "attributes": {
            "NORMAL": 21,
            "POSITION": 20,
            "TEXCOORD_0": 22
          },
          "indices": 23,
          "material": 3,
          "mode": 4
        }
      ]
    },
    {
      "name": "body_light_f_0",
      "primitives": [
        {
          "attributes": {
            "NORMAL": 25,
            "POSITION": 24,
            "TEXCOORD_0": 26
          },
          "indices": 27,
          "material": 4,
          "mode": 4
        }
      ]
    },
    {
      "name": "body_glass_0",
      "primitives": [
        {
          "attributes": {
            "NORMAL": 29,
            "POSITION": 28,
            "TEXCOORD_0": 30
          },
          "indices": 31,
          "material": 5,
          "mode": 4
        }
      ]
    },
    {
      "name": "body_glassgray_0",
      "primitives": [
        {
          "attributes": {
            "NORMAL": 33,
            "POSITION": 32,
            "TEXCOORD_0": 34
          },
          "indices": 35,
          "material": 6,
          "mode": 4
        }
      ]
    },
    {
      "name": "body_body_0",
      "primitives": [
        {
          "attributes": {
            "NORMAL": 37,
            "POSITION": 36,
            "TEXCOORD_0": 38,
            "TEXCOORD_1": 39
          },
          "indices": 40,
          "material": 7,
          "mode": 4
        }
      ]
    }
  ],
  "nodes": [
    {
      "children": [
        1
      ],
      "matrix": [
        0.009999999776482582,
        -1.6081225870133875e-18,
        -3.570749445044069e-34,
        0.0,
        0.0,
        2.2204459996194763e-18,
        -0.009999999776482582,
        0.0,
        1.6081225870133875e-18,
        0.009999999776482582,
        2.2204459996194763e-18,
        0.0,
        -2.842170943040401e-14,
        -1.0502296390768606e-05,
        -8.401918307754409e-07,
        1.0
      ],
      "name": "Sketchfab_model"
    },
    {
      "children": [
        2
      ],
      "matrix": [
        1.0,
        0.0,
        0.0,
        0.0,
        0.0,
        0.0,
        1.0,
        0.0,
        0.0,
        -1.0,
        0.0,
        0.0,
        0.0,
        0.0,
        0.0,
        1.0
      ],
      "name": "278a766cab6c4eadbb4c505541372db8.fbx"
    },
    {
      "children": [
        3,
        6
      ],
      "name": "RootNode"
    },
    {
      "children": [
        4
      ],
      "matrix": [
        100.0,
        0.0,
        0.0,
        0.0,
        -0.0,
        -1.629206793918314e-05,
        -99.99999999999868,
        0.0,
        0.0,
        99.99999999999868,
        -1.629206793918314e-05,
        0.0,
        -300.0,
        0.0,
        0.0,
        1.0
      ],
      "name": "tesla_ct_LOD1"
    },
    {
      "children": [
        5
      ],
      "matrix": [
        1.0,
        0.0,
        0.0,
        0.0,
        0.0,
        1.0,
        -2.646977960169688e-23,
        0.0,
        0.0,
        2.646977960169688e-23,
        1.0,
        0.0,
        0.0,
        0.0,
        0.0,
        1.0
      ],
      "name": "body_LOD1"
    },
    {
      "mesh": 0,
      "name": "body_LOD1_body_LOD1_0"
    },
    {
      "children": [
        7,
        9,
        11,
        13
      ],
      "matrix": [
        100.0,
        0.0,
        0.0,
        0.0,
        0.0,
        -1.629206793918314e-05,
        -99.99999999999868,
        0.0,
        0.0,
        99.99999999999868,
        -1.629206793918314e-05,
        0.0,
        0.0,
        0.0,
        0.0,
        1.0
      ],
      "name": "tesla_ct_LOD0"
    },
    {
      "children": [
        8
      ],
      "matrix": [
        1.0,
        0.0,
        0.0,
        0.0,
        0.0,
        1.0,
        -2.646977960169688e-23,
        0.0,
        0.0,
        2.646977960169688e-23,
        1.0,
        0.0,
        0.0,
        0.0,
        0.0,
        1.0
      ],
      "name": "crack"
    },
    {
      "mesh": 1,
      "name": "0"
    },
    {
      "children": [
        10
      ],
      "matrix": [
        1.0,
        0.0,
        0.0,
        0.0,
        0.0,
        1.0,
        -2.646977960169688e-23,
        0.0,
        0.0,
        2.646977960169688e-23,
        1.0,
        0.0,
        0.0,
        0.0,
        0.0,
        1.0
      ],
      "name": "tires"
    },
    {
      "mesh": 2,
      "name": "tires_rubber_0"
    },
    {
      "children": [
        12
      ],
      "matrix": [
        1.0,
        0.0,
        0.0,
        0.0,
        0.0,
        1.0,
        -2.646977960169688e-23,
        0.0,
        0.0,
        2.646977960169688e-23,
        1.0,
        0.0,
        0.0,
        0.0,
        0.0,
        1.0
      ],
      "name": "steer"
    },
    {
      "mesh": 3,
      "name": "steer_gray_0"
    },
    {
      "children": [
        14,
        15,
        16,
        17,
        18
      ],
      "matrix": [
        1.0,
        0.0,
        0.0,
        0.0,
        0.0,
        1.0,
        -2.646977960169688e-23,
        0.0,
        0.0,
        2.646977960169688e-23,
        1.0,
        0.0,
        0.0,
        0.0,
        0.0,
        1.0
      ],
      "name": "body"
    },
    {
      "mesh": 4,
      "name": "body_gray_0"
    },
    {
      "mesh": 5,
      "name": "body_light_f_0"
    },
    {
      "mesh": 6,
      "name": "body_glass_0"
    },
    {
      "mesh": 7,
      "name": "body_glassgray_0"
    },
    {
      "mesh": 8,
      "name": "body_body_0"
    }
  ],
  "samplers": [
    {
      "magFilter": 9729,
      "minFilter": 9987,
      "wrapS": 10497,
      "wrapT": 10497
    }
  ],
  "scene": 0,
  "scenes": [
    {
      "name": "Sketchfab_Scene",
      "nodes": [
        0
      ]
    }
  ],
  "textures": [
    {
      "sampler": 0,
      "source": 0
    },
    {
      "sampler": 0,
      "source": 1
    },
    {
      "sampler": 0,
      "source": 2
    },
    {
      "sampler": 0,
      "source": 3
    },
    {
      "sampler": 0,
      "source": 4
    },
    {
      "sampler": 0,
      "source": 5
    },
    {
      "sampler": 0,
      "source": 6
    },
    {
      "sampler": 0,
      "source": 7
    },
    {
      "sampler": 0,
      "source": 8
    }
  ]
}
